<svg xmlns="http://www.w3.org/2000/svg" width="720" height="260" viewBox="0 0 720 260">
<defs>

      <linearGradient id="bgGrad" x1="0" y1="0" x2="1" y2="1">
        <stop offset="0%" stop-color="#121223"/>
        <stop offset="100%" stop-color="#1A1B2E"/>
      </linearGradient>
      <filter id="shadow" x="-20%" y="-20%" width="140%" height="140%">
        <feGaussianBlur in="SourceAlpha" stdDeviation="4" result="blur"/>
        <feOffset in="blur" dx="0" dy="2" result="off"/>
        <feMerge>
          <feMergeNode in="off"/>
          <feMergeNode in="SourceGraphic"/>
        </feMerge>
      </filter>
      <clipPath id="barClip">
        <rect x="40" y="98" width="640" height="14" rx="7" ry="7"/>
      </clipPath>
    
</defs>
<rect x="18" y="18" width="684" height="224" rx="14" ry="14" fill="url(#bgGrad)" stroke="#2B2F45" stroke-width="2" filter="url(#shadow)"/>
<text x="40" y="70" fill="#FF3B8D" font-size="28" font-weight="700" font-family="Inter, system-ui, -apple-system, Segoe UI, Roboto, Arial">Most Used Languages</text>
<rect x="40" y="98" width="640" height="14" rx="7" ry="7" fill="#24273A"/>
<g clip-path="url(#barClip)">
<rect x="40.00" y="98" width="291.48" height="14" fill="#F3DF69"/>
<rect x="331.48" y="98" width="121.64" height="14" fill="#B47129"/>
<rect x="453.12" y="98" width="73.69" height="14" fill="#2EC4B6"/>
<rect x="526.81" y="98" width="62.37" height="14" fill="#5B6EA8"/>
<rect x="589.17" y="98" width="33.86" height="14" fill="#ED4A30"/>
<rect x="623.03" y="98" width="56.97" height="14" fill="#374151"/>
</g>
<circle cx="40" cy="153" r="6" fill="#F3DF69"/>
<text x="54" y="158" fill="#D5DBE5" font-size="16" font-weight="600" font-family="Inter, system-ui, -apple-system, Segoe UI, Roboto, Arial">TypeScript 45.54%</text>
<circle cx="40" cy="183" r="6" fill="#B47129"/>
<text x="54" y="188" fill="#D5DBE5" font-size="16" font-weight="600" font-family="Inter, system-ui, -apple-system, Segoe UI, Roboto, Arial">Python 19.01%</text>
<circle cx="40" cy="213" r="6" fill="#2EC4B6"/>
<text x="54" y="218" fill="#D5DBE5" font-size="16" font-weight="600" font-family="Inter, system-ui, -apple-system, Segoe UI, Roboto, Arial">HTML 11.51%</text>
<circle cx="401" cy="153" r="6" fill="#5B6EA8"/>
<text x="415" y="158" fill="#D5DBE5" font-size="16" font-weight="600" font-family="Inter, system-ui, -apple-system, Segoe UI, Roboto, Arial">C# 9.74%</text>
<circle cx="401" cy="183" r="6" fill="#ED4A30"/>
<text x="415" y="188" fill="#D5DBE5" font-size="16" font-weight="600" font-family="Inter, system-ui, -apple-system, Segoe UI, Roboto, Arial">CSS 5.29%</text>
<text x="40" y="224" fill="#A9B1BD" font-size="10" font-family="Inter, system-ui, -apple-system, Segoe UI, Roboto, Arial"></text>
</svg>